<svg width="24" height="24" viewBox="0 0 24 24" fill="none" xmlns="http://www.w3.org/2000/svg">
<rect width="24" height="24" rx="6" fill="white"/>
<path d="M18.65 6.74164C17.25 5.62498 15.25 5.31664 14.3833 5.22498H14.35C14.2167 5.22498 14.0917 5.29998 14.05 5.42498C13.975 5.61664 14.0917 5.82498 14.2833 5.85831C15.2583 6.05831 16.3833 6.40831 17.4083 7.04998C17.6167 7.17498 17.6667 7.45831 17.5 7.64998C17.3667 7.79998 17.1417 7.81664 16.9667 7.71664C14.9667 6.48331 12.4833 6.41664 12 6.41664C11.5167 6.41664 9.03334 6.48331 7.03334 7.71664C6.85834 7.81664 6.63334 7.79998 6.5 7.64998C6.33334 7.45831 6.38334 7.17498 6.59167 7.04998C7.61667 6.40831 8.74167 6.05831 9.71667 5.85831C9.90834 5.82498 10.025 5.61664 9.95 5.42498C9.90834 5.29998 9.78334 5.22498 9.65 5.22498H9.61667C8.75 5.31664 6.75 5.62498 5.35 6.74164C4.53334 7.49998 2.90834 11.8583 2.83334 15.7166C2.83334 15.975 2.9 16.2333 3.05 16.4416C4.025 17.8166 6.14167 18.6416 7.74167 18.7583C7.98334 18.775 8.21667 18.6666 8.35834 18.4666C8.36667 18.4666 8.36667 18.4583 8.375 18.45C8.66667 18.05 8.49167 17.4833 8.025 17.3083C6.69167 16.8166 6.00834 16.2333 5.96667 16.1916C5.8 16.0416 5.78334 15.7916 5.925 15.625C6.075 15.4583 6.325 15.4416 6.49167 15.5916C6.51667 15.6083 8.36667 17.1833 12 17.1833C15.6333 17.1833 17.4833 15.6083 17.5083 15.5916C17.675 15.4416 17.925 15.4583 18.075 15.625C18.2167 15.7916 18.2 16.0416 18.0333 16.1916C17.9917 16.2333 17.3083 16.8166 15.975 17.3083C15.5083 17.4833 15.3333 18.05 15.625 18.45C15.6333 18.4583 15.6333 18.4666 15.6417 18.4666C15.7833 18.6666 16.0167 18.775 16.2583 18.7583C17.8583 18.6416 19.975 17.8166 20.95 16.4416C21.1 16.2333 21.1667 15.975 21.1667 15.7166C21.0917 11.8583 19.4667 7.49998 18.65 6.74164ZM9.40834 14.3916C8.64167 14.3916 8.01667 13.675 8.01667 12.8C8.01667 11.9166 8.64167 11.2 9.40834 11.2C10.1833 11.2 10.8 11.9166 10.8 12.8C10.8 13.675 10.1833 14.3916 9.40834 14.3916ZM14.5917 14.3916C13.8167 14.3916 13.2 13.675 13.2 12.8C13.2 11.9166 13.8167 11.2 14.5917 11.2C15.3583 11.2 15.9833 11.9166 15.9833 12.8C15.9833 13.675 15.3583 14.3916 14.5917 14.3916Z" fill="#2C2C2C"/>
</svg>
