<svg width="24" height="24" viewBox="0 0 24 24" fill="none" xmlns="http://www.w3.org/2000/svg">
<rect width="24" height="24" rx="6" fill="white"/>
<path d="M20.6667 6.62467C20.0287 6.908 19.3433 7.09867 18.624 7.18467C19.3587 6.74467 19.922 6.048 20.1873 5.21734C19.5007 5.62467 18.7393 5.92067 17.9287 6.08067C17.28 5.38934 16.356 4.95734 15.3333 4.95734C13.3693 4.95734 11.7773 6.55 11.7773 8.51334C11.7773 8.792 11.8093 9.064 11.8693 9.32334C8.91401 9.17534 6.29401 7.75934 4.53934 5.60734C4.23401 6.13267 4.05867 6.74334 4.05867 7.396C4.05867 8.62934 4.68601 9.718 5.64001 10.3553C5.05734 10.3367 4.50867 10.1767 4.02934 9.91067C4.02934 9.926 4.02934 9.94 4.02934 9.95534C4.02934 11.6787 5.25467 13.116 6.88201 13.442C6.58401 13.5233 6.26934 13.5667 5.94467 13.5667C5.71601 13.5667 5.49267 13.544 5.27601 13.5033C5.72867 14.916 7.04201 15.9447 8.59801 15.9733C7.38134 16.9273 5.84801 17.496 4.18134 17.496C3.89467 17.496 3.61134 17.4793 3.33267 17.446C4.90667 18.4547 6.77534 19.0433 8.78401 19.0433C15.3253 19.0433 18.9013 13.6247 18.9013 8.92534C18.9013 8.77134 18.898 8.618 18.8913 8.46534C19.5867 7.96334 20.19 7.33734 20.6667 6.62467Z" fill="#2C2C2C"/>
</svg>
